HIERARCHY
ROOT Hips
{
  OFFSET 5.84602e-005 68.8428 3.50346
  CHANNELS 6 Xposition Yposition Zposition Zrotation Xrotation Yrotation
  JOINT Spine
  {
    OFFSET 0 8.597 -4.6522
    CHANNELS 3 Zrotation Xrotation Yrotation
    JOINT Spine1
    {
      OFFSET 0 7.8454 0.4098
      CHANNELS 3 Zrotation Xrotation Yrotation
      JOINT Spine2
      {
        OFFSET 0 9.7078 -2.1609
        CHANNELS 3 Zrotation Xrotation Yrotation
        JOINT Neck
        {
          OFFSET 0 21.8761 -0.4549
          CHANNELS 3 Zrotation Xrotation Yrotation
          JOINT Head
          {
            OFFSET 0 12.3537 3.3602
            CHANNELS 3 Zrotation Xrotation Yrotation
            End Site
            {
              OFFSET 0.0001 18.9506 0.5657
            }
          }
        }
        JOINT LeftShoulder
        {
          OFFSET 2.2086 21.1115 7.2329
          CHANNELS 3 Zrotation Xrotation Yrotation
          JOINT LeftArm
          {
            OFFSET 13.1193 3.0282 -4.8998
            CHANNELS 3 Zrotation Xrotation Yrotation
            JOINT LeftForeArm
            {
              OFFSET 27.4081 -0.0973053 -0.2375
              CHANNELS 3 Zrotation Xrotation Yrotation
              JOINT LeftHand
              {
                OFFSET 22.8641 0.0662994 -0.1369
                CHANNELS 3 Zrotation Xrotation Yrotation
                JOINT LeftHandIndex1
                {
                  OFFSET 8.8614 0.775009 2.4612
                  CHANNELS 3 Zrotation Xrotation Yrotation
                  JOINT LeftHandIndex2
                  {
                    OFFSET 3.3146 -0.808304 0.5841
                    CHANNELS 3 Zrotation Xrotation Yrotation
                    JOINT LeftHandIndex3
                    {
                      OFFSET 2.2628 -0.552002 0.3989
                      CHANNELS 3 Zrotation Xrotation Yrotation
                      End Site
                      {
                        OFFSET 1.6102 -0.4807 0.2612
                      }
                    }
                  }
                }
                JOINT LeftHandMiddle1
                {
                  OFFSET 8.9937 0.895004 0.2143
                  CHANNELS 3 Zrotation Xrotation Yrotation
                  JOINT LeftHandMiddle2
                  {
                    OFFSET 4.0984 0.0113983 -0.0242
                    CHANNELS 3 Zrotation Xrotation Yrotation
                    JOINT LeftHandMiddle3
                    {
                      OFFSET 2.2716 0.00689697 -0.0138001
                      CHANNELS 3 Zrotation Xrotation Yrotation
                      End Site
                      {
                        OFFSET 2.0404 -0.1441 0.0027
                      }
                    }
                  }
                }
                JOINT LeftHandRing1
                {
                  OFFSET 8.5234 0.597198 -2.0164
                  CHANNELS 3 Zrotation Xrotation Yrotation
                  JOINT LeftHandRing2
                  {
                    OFFSET 3.7188 -0.188293 -0.2328
                    CHANNELS 3 Zrotation Xrotation Yrotation
                    JOINT LeftHandRing3
                    {
                      OFFSET 2.1191 -0.106598 -0.1332
                      CHANNELS 3 Zrotation Xrotation Yrotation
                      End Site
                      {
                        OFFSET 1.8737 -0.2304 -0.0886
                      }
                    }
                  }
                }
                JOINT LeftHandPinky1
                {
                  OFFSET 7.9094 -0.601089 -3.4825
                  CHANNELS 3 Zrotation Xrotation Yrotation
                  JOINT LeftHandPinky2
                  {
                    OFFSET 2.2874 -0.477005 -0.6314
                    CHANNELS 3 Zrotation Xrotation Yrotation
                    JOINT LeftHandPinky3
                    {
                      OFFSET 1.6774 -0.349396 -0.4633
                      CHANNELS 3 Zrotation Xrotation Yrotation
                      End Site
                      {
                        OFFSET 1.4888 -0.4091 -0.3416
                      }
                    }
                  }
                }
                JOINT LeftHandThumb1
                {
                  OFFSET 1.833 -1.3875 1.3896
                  CHANNELS 3 Zrotation Xrotation Yrotation
                  JOINT LeftHandThumb2
                  {
                    OFFSET 3.4129 -1.121 2.5732
                    CHANNELS 3 Zrotation Xrotation Yrotation
                    JOINT LeftHandThumb3
                    {
                      OFFSET 2.2474 -0.804199 1.6192
                      CHANNELS 3 Zrotation Xrotation Yrotation
                      End Site
                      {
                        OFFSET 1.6527 -0.5689 1.1317
                      }
                    }
                  }
                }
              }
            }
          }
        }
        JOINT RightShoulder
        {
          OFFSET -2.2086 21.1115 7.2329
          CHANNELS 3 Zrotation Xrotation Yrotation
          JOINT RightArm
          {
            OFFSET -13.1216 3.0287 -4.9007
            CHANNELS 3 Zrotation Xrotation Yrotation
            JOINT RightForeArm
            {
              OFFSET -27.4081 -0.0973053 -0.2375
              CHANNELS 3 Zrotation Xrotation Yrotation
              JOINT RightHand
              {
                OFFSET -22.8641 0.0664063 -0.1369
                CHANNELS 3 Zrotation Xrotation Yrotation
                JOINT RightHandIndex1
                {
                  OFFSET -8.8614 0.774994 2.4612
                  CHANNELS 3 Zrotation Xrotation Yrotation
                  JOINT RightHandIndex2
                  {
                    OFFSET -3.3146 -0.808304 0.5841
                    CHANNELS 3 Zrotation Xrotation Yrotation
                    JOINT RightHandIndex3
                    {
                      OFFSET -2.2628 -0.552002 0.3989
                      CHANNELS 3 Zrotation Xrotation Yrotation
                      End Site
                      {
                        OFFSET -1.6102 -0.4807 0.2612
                      }
                    }
                  }
                }
                JOINT RightHandMiddle1
                {
                  OFFSET -8.9937 0.894989 0.2143
                  CHANNELS 3 Zrotation Xrotation Yrotation
                  JOINT RightHandMiddle2
                  {
                    OFFSET -4.0984 0.0113983 -0.0242
                    CHANNELS 3 Zrotation Xrotation Yrotation
                    JOINT RightHandMiddle3
                    {
                      OFFSET -2.2716 0.00691223 -0.0138001
                      CHANNELS 3 Zrotation Xrotation Yrotation
                      End Site
                      {
                        OFFSET -2.0404 -0.1441 0.0027
                      }
                    }
                  }
                }
                JOINT RightHandRing1
                {
                  OFFSET -8.5234 0.597198 -2.0164
                  CHANNELS 3 Zrotation Xrotation Yrotation
                  JOINT RightHandRing2
                  {
                    OFFSET -3.7188 -0.188309 -0.2328
                    CHANNELS 3 Zrotation Xrotation Yrotation
                    JOINT RightHandRing3
                    {
                      OFFSET -2.1191 -0.106598 -0.1332
                      CHANNELS 3 Zrotation Xrotation Yrotation
                      End Site
                      {
                        OFFSET -1.8737 -0.2304 -0.0886
                      }
                    }
                  }
                }
                JOINT RightHandPinky1
                {
                  OFFSET -7.9094 -0.601105 -3.4825
                  CHANNELS 3 Zrotation Xrotation Yrotation
                  JOINT RightHandPinky2
                  {
                    OFFSET -2.2874 -0.477005 -0.6314
                    CHANNELS 3 Zrotation Xrotation Yrotation
                    JOINT RightHandPinky3
                    {
                      OFFSET -1.6774 -0.349396 -0.4633
                      CHANNELS 3 Zrotation Xrotation Yrotation
                      End Site
                      {
                        OFFSET -1.4888 -0.4091 -0.3416
                      }
                    }
                  }
                }
                JOINT RightHandThumb1
                {
                  OFFSET -1.833 -1.38751 1.3896
                  CHANNELS 3 Zrotation Xrotation Yrotation
                  JOINT RightHandThumb2
                  {
                    OFFSET -3.41299 -1.12099 2.5732
                    CHANNELS 3 Zrotation Xrotation Yrotation
                    JOINT RightHandThumb3
                    {
                      OFFSET -2.24741 -0.804108 1.6192
                      CHANNELS 3 Zrotation Xrotation Yrotation
                      End Site
                      {
                        OFFSET -1.6527 -0.5689 1.1317
                      }
                    }
                  }
                }
              }
            }
          }
        }
      }
    }
  }
  JOINT RightUpLeg
  {
    OFFSET -9.1966 3.8861 -0.7581
    CHANNELS 3 Zrotation Xrotation Yrotation
    JOINT RightLeg
    {
      OFFSET -0.7359 -41.0265 0
      CHANNELS 3 Zrotation Xrotation Yrotation
      JOINT RightFoot
      {
        OFFSET 0 -40.2855 0
        CHANNELS 3 Zrotation Xrotation Yrotation
        JOINT RightToeBase
        {
          OFFSET 0 -5.6122 11.7359
          CHANNELS 3 Zrotation Xrotation Yrotation
          End Site
          {
            OFFSET 0 0 7.8731
          }
        }
      }
    }
  }
  JOINT LeftUpLeg
  {
    OFFSET 9.1965 3.8864 -0.7581
    CHANNELS 3 Zrotation Xrotation Yrotation
    JOINT LeftLeg
    {
      OFFSET 0.7359 -41.0268 0
      CHANNELS 3 Zrotation Xrotation Yrotation
      JOINT LeftFoot
      {
        OFFSET 0 -40.2855 0
        CHANNELS 3 Zrotation Xrotation Yrotation
        JOINT LeftToeBase
        {
          OFFSET 0 -5.6122 11.7359
          CHANNELS 3 Zrotation Xrotation Yrotation
          End Site
          {
            OFFSET 0 0 7.8731
          }
        }
      }
    }
  }
}
MOTION
Frames:	6
Frame Time:	0.0333333
39.7387 21.6821 4.6523 -0.00385285 -56.9961 179.995 -0.199385 7.55211 -0.1263 -0.386918 15.1045 -0.228843 -0.386918 15.1045 -0.228842 -3.72944 -13.6345 -2.06977 -9.43131 -9.50024 -4.18819 0.34669 -9.30538 -35.0874 1.1674 -3.65424 -41.3379 6.5268 -12.1794 -4.00458 59.5116 -8.82706 -0.428384 -1.59028e-015 -8.74653e-015 -0 1.59028e-015 -7.55382e-015 -0 -1.59028e-015 -7.55382e-015 -0 -1.59028e-015 -8.74653e-015 -0 -0.0146065 -8.88196e-005 7.13054e-006 -1.59028e-015 -2.38542e-015 3.18055e-015 -1.59028e-015 -8.74653e-015 -0 -0.0187262 -0.00117593 5.87476e-005 -1.59028e-015 -3.18055e-015 -3.18055e-015 -1.59028e-015 -8.74653e-015 -0 -0.0122562 -0.00324469 0.000671147 1.59028e-015 -6.75868e-015 -0 -1.59028e-015 -8.74653e-015 -0 1.59028e-015 -7.55382e-015 -0 -1.59028e-015 -7.55382e-015 -0 1.0336 -8.01584 29.8917 -1.26218 -2.97768 53.0569 -9.51182 -12.6137 10.75 -58.7643 0.865231 -2.56112 -5.32457e-007 -6.58385e-007 1.02094e-007 6.4466e-007 2.64918e-006 9.33455e-006 -5.32457e-007 -6.58385e-007 1.02094e-007 -5.32457e-007 -6.58385e-007 1.02094e-007 0.0149994 -8.87209e-005 9.62467e-006 -5.32451e-007 -6.58372e-007 1.0218e-007 -5.32457e-007 -6.58385e-007 1.02094e-007 0.0189845 -0.00118874 -5.2398e-005 -5.32449e-007 -6.58369e-007 1.02208e-007 -5.32457e-007 -6.58385e-007 1.02094e-007 0.0122987 -0.00325193 -0.000662946 -5.32446e-007 -6.58379e-007 1.02179e-007 -5.32457e-007 -6.58385e-007 1.02094e-007 6.4466e-007 2.64918e-006 9.33455e-006 -5.32457e-007 -6.58385e-007 1.02094e-007 -65.7396 -52.4016 -67.8656 -112.485 61.5303 112.249 -18.5498 44.7004 5.43953 -7.84043e-007 -1.66782e-006 -4.62071e-007 65.734 -52.4055 67.86 112.484 61.5305 -112.252 18.5478 44.6998 -5.44243 -9.13576e-008 -2.94444e-006 -7.68586e-006 
39.7387 21.6821 4.57142 -0.00385285 -56.9961 179.995 -0.19964 7.61233 -0.126006 -0.387418 15.225 -0.228036 -0.387418 15.225 -0.228036 -3.76627 -13.9416 -2.09741 -9.51704 -9.7537 -4.24356 0.357462 -9.42741 -34.8041 1.16812 -3.63863 -41.6156 6.64937 -12.1937 -4.08207 59.5116 -8.82705 -0.428384 -3.18055e-015 -2.38542e-015 3.18055e-015 -0 -2.78299e-015 -0 -0 -2.78299e-015 -0 -3.18055e-015 -2.38542e-015 3.18055e-015 -0.0146436 -8.95875e-005 5.2514e-007 2.50653e-007 -5.48726e-007 2.78745e-006 -3.18055e-015 -2.38542e-015 3.18055e-015 -0.0187852 -0.00117843 5.75773e-005 -2.51226e-007 5.48684e-007 -2.78742e-006 -3.18055e-015 -2.38542e-015 3.18055e-015 -0.0122585 -0.00324601 0.00068851 -2.42765e-031 4.37326e-015 3.18055e-015 -3.18055e-015 -2.38542e-015 3.18055e-015 -0 -2.78299e-015 -0 -0 -2.78299e-015 -0 1.02399 -8.16116 29.6491 -1.27379 -2.98521 53.2704 -9.51183 -12.6137 10.7499 -58.8908 0.896592 -2.61923 -2.66101e-007 -3.29309e-007 5.08466e-008 3.18055e-015 2.38542e-015 1.59028e-015 3.18055e-015 2.78299e-015 3.18055e-015 -2.66101e-007 -3.29309e-007 5.08466e-008 0.0149815 -9.13903e-005 -5.69746e-006 8.82781e-032 3.18055e-015 -1.59028e-015 -2.66101e-007 -3.29309e-007 5.08466e-008 0.0190063 -0.00119101 -6.05075e-005 3.18055e-015 -8.34896e-015 3.18055e-015 -2.66101e-007 -3.29309e-007 5.08466e-008 0.0123116 -0.00325962 -0.000675534 -1.59028e-015 1.19271e-015 -1.59028e-015 -2.66101e-007 -3.29309e-007 5.08466e-008 3.18055e-015 2.38542e-015 1.59028e-015 3.18055e-015 2.78299e-015 3.18055e-015 -65.7396 -52.4016 -67.8656 -112.485 61.5303 112.249 -18.5498 44.7004 5.43955 -4.56117e-007 4.68505e-008 3.56874e-006 65.734 -52.4055 67.86 112.484 61.5305 -112.252 18.5478 44.6999 -5.44244 -9.1357e-008 -2.94444e-006 -7.68586e-006 
39.7387 21.6821 4.49053 -0.00385285 -56.9961 179.995 -0.199898 7.67255 -0.125701 -0.387927 15.3455 -0.227205 -0.387927 15.3455 -0.227205 -3.80335 -14.2484 -2.12528 -9.60307 -10.0071 -4.29935 0.368845 -9.54936 -34.5207 1.16902 -3.62296 -41.8933 6.77193 -12.2081 -4.1595 59.5116 -8.82707 -0.42837 4.41391e-032 -3.97569e-016 6.36111e-015 -1.59028e-015 1.19271e-015 9.54166e-015 1.59028e-015 1.59028e-015 3.18055e-015 4.41391e-032 -3.97569e-016 6.36111e-015 -0.014612 -8.98901e-005 1.32145e-007 -0 -5.1684e-015 -0 4.41391e-032 -3.97569e-016 6.36111e-015 -0.0187756 -0.00117796 5.59129e-005 1.59028e-015 3.97569e-015 -6.36111e-015 4.41391e-032 -3.97569e-016 6.36111e-015 -0.0122795 -0.00325066 0.000674286 -0 -7.95139e-016 -0 4.41391e-032 -3.97569e-016 6.36111e-015 -1.59028e-015 1.19271e-015 9.54166e-015 1.59028e-015 1.59028e-015 3.18055e-015 1.01376 -8.3064 29.4064 -1.28539 -2.99277 53.484 -9.51184 -12.6137 10.75 -59.0172 0.928044 -2.67722 -1.19175e-030 2.14687e-014 3.18055e-015 0 2.38542e-014 -0 -3.18055e-015 2.38542e-014 4.77083e-015 -1.19175e-030 2.14687e-014 3.18055e-015 0.0150042 -9.08137e-005 7.05066e-007 -9.93129e-032 1.19271e-015 4.77083e-015 -1.19175e-030 2.14687e-014 3.18055e-015 0.0189755 -0.0011892 -6.27347e-005 -1.59028e-015 -3.57812e-015 1.59028e-015 -1.19175e-030 2.14687e-014 3.18055e-015 0.0122379 -0.00324036 -0.000677377 1.59028e-015 -1.98785e-015 3.18055e-015 -1.19175e-030 2.14687e-014 3.18055e-015 0 2.38542e-014 -0 -3.18055e-015 2.38542e-014 4.77083e-015 -65.7396 -52.4016 -67.8656 -112.485 61.5303 112.249 -18.5498 44.7004 5.43955 -4.56117e-007 4.68505e-008 3.56874e-006 65.734 -52.4055 67.86 112.484 61.5305 -112.252 18.5478 44.6998 -5.44243 -1.42404e-006 -4.26678e-006 -1.22644e-005 
39.7387 21.6821 4.40965 -0.00385285 -56.9961 179.995 -0.20016 7.73278 -0.125382 -0.388447 15.4659 -0.226346 -0.388447 15.4659 -0.226346 -3.84055 -14.5561 -2.15342 -9.68941 -10.2604 -4.35556 0.380834 -9.67125 -34.2372 1.17006 -3.60718 -42.171 6.89447 -12.2227 -4.2369 59.5116 -8.82706 -0.428384 -1.59028e-015 2.78299e-015 3.18055e-015 -1.59028e-015 3.97569e-016 6.36111e-015 -4.41391e-032 7.95139e-016 3.18055e-015 -1.59028e-015 2.78299e-015 3.18055e-015 -0.0145882 -8.91466e-005 -1.18818e-006 -1.59028e-015 7.15625e-015 -0 -1.59028e-015 2.78299e-015 3.18055e-015 -0.0187373 -0.001177 6.04105e-005 -2.70871e-007 5.439e-007 -2.80704e-006 -1.59028e-015 2.78299e-015 3.18055e-015 -0.012259 -0.00324487 0.000675358 3.18055e-015 5.56597e-015 -0 -1.59028e-015 2.78299e-015 3.18055e-015 -1.59028e-015 3.97569e-016 6.36111e-015 -4.41391e-032 7.95139e-016 3.18055e-015 1.0029 -8.45159 29.1636 -1.29696 -3.00038 53.6975 -9.51183 -12.6137 10.7499 -59.1437 0.959666 -2.73519 1.17785e-007 -5.28936e-007 -4.26326e-006 -5.31707e-007 -6.59067e-007 1.00892e-007 1.17785e-007 -5.28936e-007 -4.26326e-006 1.17785e-007 -5.28936e-007 -4.26326e-006 0.0149852 -9.18387e-005 -1.04459e-005 1.17077e-007 -5.29489e-007 -4.26319e-006 1.17785e-007 -5.28936e-007 -4.26326e-006 0.0190093 -0.00119299 -6.77341e-005 1.16847e-007 -5.29587e-007 -4.26317e-006 1.17785e-007 -5.28936e-007 -4.26326e-006 0.0122018 -0.00322959 -0.000681751 1.17094e-007 -5.29237e-007 -4.26317e-006 1.17785e-007 -5.28936e-007 -4.26326e-006 -5.31707e-007 -6.59067e-007 1.00892e-007 1.17785e-007 -5.28936e-007 -4.26326e-006 -65.7397 -52.4016 -67.8656 -112.485 61.5303 112.249 -18.5498 44.7004 5.43955 1.51872e-006 5.01696e-007 -5.31301e-007 65.734 -52.4055 67.86 112.484 61.5305 -112.252 18.5478 44.6998 -5.44242 -2.12545e-006 1.0964e-006 -6.07493e-006 
39.7387 21.6821 4.32876 -0.00385285 -56.9961 179.995 -0.200428 7.79301 -0.125047 -0.388981 15.5864 -0.225454 -0.388981 15.5864 -0.225454 -3.87799 -14.8633 -2.18179 -9.77608 -10.5136 -4.4122 0.393448 -9.79308 -33.9536 1.17128 -3.59133 -42.4487 7.017 -12.2375 -4.31427 59.5116 -8.82706 -0.428361 2.57249e-007 -3.36557e-007 -4.8934e-008 7.71748e-007 -1.00967e-006 -1.46802e-007 2.57249e-007 -3.36557e-007 -4.8934e-008 2.57249e-007 -3.36557e-007 -4.8934e-008 -0.0146051 -9.04912e-005 6.64592e-006 2.57247e-007 -3.36551e-007 -4.89771e-008 2.57249e-007 -3.36557e-007 -4.8934e-008 -0.0187665 -0.00117751 5.98996e-005 2.57246e-007 -3.3655e-007 -4.89918e-008 2.57249e-007 -3.36557e-007 -4.8934e-008 -0.0122417 -0.00323825 0.000669581 2.57244e-007 -3.36554e-007 -4.89771e-008 2.57249e-007 -3.36557e-007 -4.8934e-008 7.71748e-007 -1.00967e-006 -1.46802e-007 2.57249e-007 -3.36557e-007 -4.8934e-008 0.99142 -8.59676 28.9206 -1.30848 -3.00804 53.9111 -9.51184 -12.6137 10.7499 -59.2701 0.991388 -2.79306 -3.18055e-015 -3.57812e-015 -3.18055e-015 -3.18055e-015 -3.18055e-015 -3.18055e-015 -1.59028e-015 -3.18055e-015 -1.59028e-015 -3.18055e-015 -3.57812e-015 -3.18055e-015 0.0150222 -9.26661e-005 -4.32622e-006 -1.59028e-015 3.18055e-015 -0 -3.18055e-015 -3.57812e-015 -3.18055e-015 0.0190238 -0.00119232 -5.21192e-005 -3.31043e-032 1.19271e-015 1.59028e-015 -3.18055e-015 -3.57812e-015 -3.18055e-015 0.0122788 -0.00324825 -0.000671635 -0 -7.95139e-016 -0 -3.18055e-015 -3.57812e-015 -3.18055e-015 -3.18055e-015 -3.18055e-015 -3.18055e-015 -1.59028e-015 -3.18055e-015 -1.59028e-015 -65.7396 -52.4016 -67.8656 -112.485 61.5303 112.249 -18.5498 44.7004 5.43955 -4.56117e-007 4.68505e-008 3.56874e-006 65.734 -52.4055 67.86 112.484 61.5305 -112.252 18.5478 44.6999 -5.44244 -9.1357e-008 -2.94444e-006 -7.68586e-006 
39.7387 21.6821 4.24787 -0.00385285 -56.9961 179.995 -0.200699 7.85322 -0.124702 -0.389525 15.7068 -0.224538 -0.389525 15.7068 -0.224538 -3.91565 -15.1703 -2.21039 -9.86305 -10.7666 -4.46928 0.406683 -9.91483 -33.6699 1.17268 -3.57537 -42.7263 7.1395 -12.2524 -4.39164 59.5116 -8.82706 -0.428374 2.57456e-007 -3.36357e-007 -4.92105e-008 -7.72368e-007 1.00907e-006 1.47631e-007 2.57456e-007 -3.36357e-007 -4.92104e-008 2.57456e-007 -3.36357e-007 -4.92105e-008 -0.0145794 -9.0112e-005 6.52737e-006 2.57454e-007 -3.36351e-007 -4.92534e-008 2.57456e-007 -3.36357e-007 -4.92105e-008 -0.0187494 -0.00117471 5.27993e-005 2.57452e-007 -3.36349e-007 -4.92681e-008 2.57456e-007 -3.36357e-007 -4.92105e-008 -0.0122954 -0.00325229 0.000673335 2.57451e-007 -3.36354e-007 -4.92537e-008 2.57456e-007 -3.36357e-007 -4.92105e-008 -7.72368e-007 1.00907e-006 1.47631e-007 2.57456e-007 -3.36357e-007 -4.92104e-008 0.979309 -8.74188 28.6776 -1.32 -3.01573 54.1246 -9.51182 -12.6137 10.75 -59.3965 1.02325 -2.85087 2.65617e-007 3.29747e-007 -5.00452e-008 3.93878e-007 -8.60982e-007 9.20917e-008 2.65617e-007 3.29747e-007 -5.00452e-008 2.65617e-007 3.29747e-007 -5.00452e-008 0.0149782 -9.2811e-005 -9.34015e-006 2.65614e-007 3.29741e-007 -5.00885e-008 2.65617e-007 3.29747e-007 -5.00452e-008 0.0189797 -0.00119053 -6.35687e-005 2.65613e-007 3.2974e-007 -5.01025e-008 2.65617e-007 3.29747e-007 -5.00452e-008 0.0122484 -0.00324288 -0.000670204 2.65612e-007 3.29744e-007 -5.00878e-008 2.65617e-007 3.29747e-007 -5.00452e-008 3.93878e-007 -8.60982e-007 9.20917e-008 2.65617e-007 3.29747e-007 -5.00452e-008 -65.7397 -52.4016 -67.8656 -112.485 61.5303 112.249 -18.5498 44.7004 5.43957 -1.19079e-006 1.21297e-006 4.56211e-006 65.734 -52.4055 67.86 112.484 61.5305 -112.252 18.5478 44.6998 -5.44243 4.22689e-006 2.10068e-007 -5.62441e-006 
